<svg height="438pt" viewBox="0 0 438 438.89643" width="438pt" xmlns="http://www.w3.org/2000/svg"><path d="m326.808594 167.753906c0 87.597656-71.011719 158.609375-158.609375 158.609375-87.601563 0-158.613281-71.011719-158.613281-158.609375s71.011718-158.609375 158.613281-158.609375c87.597656 0 158.609375 71.011719 158.609375 158.609375zm0 0" fill="#e7e4e1"/><path d="m168.199219 335.429688c-42.964844.003906-85.910157-16.347657-118.617188-49.054688-31.6875-31.683594-49.132812-73.8125-49.132812-118.621094s17.445312-86.9375 49.132812-118.621094c31.679688-31.6875 73.804688-49.132812 118.617188-49.132812s86.9375 17.445312 118.613281 49.132812c31.691406 31.683594 49.136719 73.8125 49.136719 118.621094s-17.445313 86.9375-49.136719 118.621094c-32.695312 32.699219-75.660156 49.050781-118.613281 49.054688zm0-317.144532c-39.929688 0-77.457031 15.542969-105.6875 43.777344-28.234375 28.230469-43.777344 65.765625-43.777344 105.691406 0 39.925782 15.542969 77.460938 43.777344 105.691406 58.285156 58.277344 153.089843 58.277344 211.375 0 28.230469-28.230468 43.777343-65.765624 43.777343-105.691406 0-39.925781-15.546874-77.460937-43.777343-105.691406-28.234375-28.234375-65.757813-43.777344-105.6875-43.777344zm0 0" fill="#2a3d4f"/><path d="m267.15625 293.101562 26.390625-26.386718 39.585937 39.582031-26.390624 26.390625zm0 0" fill="#e7e4e1"/><path d="m306.742188 345.617188-52.515626-52.515626 39.320313-39.316406 52.507813 52.511719zm-26.660157-52.515626 26.660157 26.65625 13.457031-13.460937-26.652344-26.65625zm0 0" fill="#2a3d4f"/><path d="m303.375 336.050781 33.121094-33.117187c1.785156-1.785156 4.679687-1.785156 6.464844 0l85.898437 85.898437c1.785156 1.785157 1.785156 4.679688 0 6.464844l-33.121094 33.117187c-1.785156 1.785157-4.679687 1.785157-6.464843 0l-85.898438-85.898437c-1.78125-1.785156-1.78125-4.679687 0-6.464844zm0 0" fill="#4b6981"/><path d="m392.511719 438.894531c-.007813 0-.019531 0-.019531 0-3.667969 0-7.113282-1.433593-9.695313-4.027343l-85.882813-85.886719c-5.347656-5.347657-5.347656-14.042969 0-19.390625l33.113282-33.121094c5.339844-5.347656 14.054687-5.347656 19.394531 0l85.902344 85.898438c5.347656 5.347656 5.347656 14.042968 0 19.390624l-33.117188 33.121094c-2.589843 2.589844-6.035156 4.015625-9.695312 4.015625zm3.222656-16.957031.007813.011719c0-.003907-.007813-.007813-.007813-.011719zm-82.660156-82.652344 79.4375 79.433594 26.652343-26.65625-79.4375-79.433594zm0 0" fill="#2a3d4f"/><path d="m89.03125 88.585938 79.167969 79.167968-79.167969 79.167969c43.722656 43.722656 114.613281 43.722656 158.335938 0 43.722656-43.722656 43.722656-114.613281 0-158.335937-43.722657-43.722657-114.613282-43.722657-158.335938 0zm0 0" fill="#ec763e"/><path d="m168.199219 288.804688c-31.007813 0-62.027344-11.804688-85.632813-35.417969l-5.046875-7.878907 77.75-77.753906-77.808593-77.808594 5.105468-7.824218c47.214844-47.226563 124.050782-47.226563 171.265625 0 47.222657 47.21875 47.222657 124.046875 0 171.265625-23.605469 23.613281-54.625 35.417969-85.632812 35.417969zm-65.957031-42.167969c40.347656 33.792969 100.75 31.734375 138.664062-6.179688 40.085938-40.085937 40.085938-105.320312 0-145.40625-37.914062-37.917969-98.316406-39.980469-138.664062-6.179687l78.886718 78.882812zm0 0" fill="#2a3d4f"/><path d="m89.03125 88.585938c-43.722656 43.722656-43.722656 114.613281 0 158.335937l79.167969-79.167969zm0 0" fill="#fccb4f"/><path d="m89.960938 258.921875-7.394532-5.535156c-47.222656-47.21875-47.222656-124.046875 0-171.265625l7.511719-5.414063 91.050781 91.046875zm-.644532-157.125c-31.851562 38.039063-31.851562 93.875 0 131.914063l65.953125-65.957032zm0 0" fill="#2a3d4f"/></svg>