<?xml version="1.0" encoding="iso-8859-1"?>
<!-- Generator: Adobe Illustrator 19.0.0, SVG Export Plug-In . SVG Version: 6.00 Build 0)  -->
<svg version="1.1" id="Capa_1" xmlns="http://www.w3.org/2000/svg" xmlns:xlink="http://www.w3.org/1999/xlink" x="0px" y="0px"
	 viewBox="0 0 380.8 380.8" style="enable-background:new 0 0 380.8 380.8;" xml:space="preserve">
<path style="fill:#ED7D45;" d="M45.6,372.8V78.4H300c8,0,16-3.2,22.4-8L335.2,60v277.6c0,19.2-16,35.2-35.2,35.2L45.6,372.8
	L45.6,372.8z"/>
<path style="fill:#DD603E;" d="M335.2,337.6V60l-12.8,10.4c-6.4,4.8-14.4,8-22.4,8h-10.4v294.4H300
	C319.2,372.8,335.2,356.8,335.2,337.6z"/>
<polygon style="fill:#FFD98D;" points="194.4,78.4 259.2,78.4 259.2,202.4 226.4,170.4 194.4,202.4 "/>
<polygon style="fill:#F2BF81;" points="259.2,202.4 259.2,78.4 226.4,78.4 226.4,170.4 "/>
<path style="fill:#FFFFFF;" d="M92.8,78.4V8H300c19.2,0,35.2,16,35.2,35.2s-16,35.2-35.2,35.2H92.8z"/>
<path style="fill:#E5E5E5;" d="M300,8h-47.2C272,8,288,24,288,43.2s-16,35.2-35.2,35.2H300c19.2,0,35.2-16,35.2-35.2S319.2,8,300,8z
	"/>
<path style="fill:#281A10;" d="M300,0H92.8c-4.8,0-8,3.2-8,8v62.4H45.6c-4.8,0-8,3.2-8,8v294.4c0,4.8,3.2,8,8,8H300
	c24,0,43.2-19.2,43.2-43.2V43.2C343.2,20,324,0,300,0z M327.2,337.6c0,15.2-12,27.2-27.2,27.2H53.6V86.4h132v116c0,4.8,4,8,8,8
	c2.4,0,4-0.8,5.6-2.4l26.4-25.6l26.4,26.4c3.2,3.2,8,3.2,11.2,0c1.6-1.6,2.4-3.2,2.4-5.6V86.4h32.8c9.6,0,19.2-3.2,27.2-9.6v260.8
	H327.2z M202.4,183.2V86.4h48.8v96.8l-18.4-18.4c-3.2-3.2-8-3.2-11.2,0L202.4,183.2z M300,70.4H100.8V16H300
	c15.2,0,27.2,12,27.2,27.2S315.2,70.4,300,70.4L300,70.4z"/>
<g>
</g>
<g>
</g>
<g>
</g>
<g>
</g>
<g>
</g>
<g>
</g>
<g>
</g>
<g>
</g>
<g>
</g>
<g>
</g>
<g>
</g>
<g>
</g>
<g>
</g>
<g>
</g>
<g>
</g>
</svg>
