<?xml version="1.0" encoding="iso-8859-1"?>
<!-- Generator: Adobe Illustrator 19.0.0, SVG Export Plug-In . SVG Version: 6.00 Build 0)  -->
<svg version="1.1" id="Capa_1" xmlns="http://www.w3.org/2000/svg" xmlns:xlink="http://www.w3.org/1999/xlink" x="0px" y="0px"
	 viewBox="0 0 511.996 511.996" style="enable-background:new 0 0 511.996 511.996;" xml:space="preserve">
<rect x="88.273" y="52.962" style="fill:#4398D1;" width="335.437" height="459.019"/>
<path style="fill:#3E8CC7;" d="M88.273,434.132v77.857H423.71V136.477C339.409,273.652,191.464,375.431,88.273,434.132z"/>
<rect x="123.582" y="88.271" style="fill:#EBEBEB;" width="264.818" height="388.4"/>
<path style="fill:#87CED9;" d="M220.682,52.97V35.316c0-19.499,15.81-35.309,35.309-35.309l0,0c19.499,0,35.309,15.81,35.309,35.309
	V52.97h35.309l26.482,70.618h-194.2l26.482-70.618C185.373,52.97,220.682,52.97,220.682,52.97z"/>
<g>
	<rect x="194.2" y="220.68" style="fill:#D1D1D1;" width="150.064" height="17.655"/>
	<rect x="158.891" y="220.68" style="fill:#D1D1D1;" width="17.655" height="17.655"/>
	<rect x="194.2" y="273.644" style="fill:#D1D1D1;" width="105.927" height="17.655"/>
	<rect x="158.891" y="273.644" style="fill:#D1D1D1;" width="17.655" height="17.655"/>
	<rect x="194.2" y="326.607" style="fill:#D1D1D1;" width="150.064" height="17.655"/>
	<rect x="158.891" y="326.607" style="fill:#D1D1D1;" width="17.655" height="17.655"/>
	<rect x="194.2" y="379.571" style="fill:#D1D1D1;" width="105.927" height="17.655"/>
	<rect x="158.891" y="379.571" style="fill:#D1D1D1;" width="17.655" height="17.655"/>
	<rect x="211.855" y="167.716" style="fill:#D1D1D1;" width="88.273" height="17.655"/>
</g>
<path style="fill:#DB6EA2;" d="M176.546,194.207L176.546,194.207c0-24.204-19.491-43.898-43.695-44.136l0,0
	c-11.581,0.053-22.677,4.643-30.895,12.8l-13.682,13.682L74.591,162.87c-8.112-8.05-19.032-12.632-30.454-12.8l0,0
	C19.764,150.071,0,169.835,0,194.207v7.503c0,12.367,5.27,24.143,14.477,32.396l73.796,66.028l75.473-75.473
	C171.797,216.549,176.378,205.629,176.546,194.207z"/>
<g>
	<polygon style="fill:#87CED9;" points="353.091,432.544 326.609,432.544 326.609,406.062 485.501,247.171 511.982,273.652 	"/>
	
		<rect x="466.817" y="254.928" transform="matrix(-0.7071 0.7071 -0.7071 -0.7071 1022.3467 123.8134)" style="fill:#87CED9;" width="37.427" height="37.427"/>
</g>
<path style="fill:#D46198;" d="M140.53,150.865c-17.946,46.626-50.404,86.243-92.598,112.989l40.341,36.28l75.473-75.473
	c17.045-17.019,17.063-44.631,0.044-61.667C157.461,156.656,149.34,152.427,140.53,150.865z"/>
<g>
</g>
<g>
</g>
<g>
</g>
<g>
</g>
<g>
</g>
<g>
</g>
<g>
</g>
<g>
</g>
<g>
</g>
<g>
</g>
<g>
</g>
<g>
</g>
<g>
</g>
<g>
</g>
<g>
</g>
</svg>
